HIERARCHY
ROOT HipCenter
{
    OFFSET 0.0 0.0 -0.0
    CHANNELS 6 Xposition Yposition Zposition Zrotation Xrotation Yrotation
    JOINT Spine
    {
        OFFSET 0.0 9.805697441101074 0.0
        CHANNELS 3 Zrotation Xrotation Yrotation
        JOINT ShoulderCenter
        {
            OFFSET 0.0 28.649211883544922 0.0
            CHANNELS 3 Zrotation Xrotation Yrotation
            JOINT LeftShoulder
            {
                OFFSET 18.34325408935547 0.0 0.0
                CHANNELS 3 Zrotation Xrotation Yrotation
                JOINT LeftElbow
                {
                    OFFSET 29.939769744873047 0.0 0.0
                    CHANNELS 3 Zrotation Xrotation Yrotation
                    JOINT LeftWrist
                    {
                        OFFSET 28.815670013427734 0.0 0.0
                        CHANNELS 3 Zrotation Xrotation Yrotation
                        JOINT LeftHand
                        {
                            OFFSET 3.7316408157348633 0.0 0.0
                            CHANNELS 3 Zrotation Xrotation Yrotation
                            End Site
                            {
                                OFFSET 1.4926562309265137 0.0 0.0
                            }
                        }
                    }
                }
            }
            JOINT RightShoulder
            {
                OFFSET -18.34325408935547 0.0 0.0
                CHANNELS 3 Zrotation Xrotation Yrotation
                JOINT RightElbow
                {
                    OFFSET -29.939769744873047 0.0 0.0
                    CHANNELS 3 Zrotation Xrotation Yrotation
                    JOINT RightWrist
                    {
                        OFFSET -28.815670013427734 0.0 0.0
                        CHANNELS 3 Zrotation Xrotation Yrotation
                        JOINT RightHand
                        {
                            OFFSET -3.7316408157348633 0.0 0.0
                            CHANNELS 3 Zrotation Xrotation Yrotation
                            End Site
                            {
                                OFFSET -1.4926562309265137 0.0 0.0
                            }
                        }
                    }
                }
            }
            End Site
            {
                OFFSET 0.0 11.459683418273926 0.0
            }
        }
    }
    JOINT LeftHip
    {
        OFFSET 14.563909530639648 0.0 0.0
        CHANNELS 3 Zrotation Xrotation Yrotation
        JOINT LeftKnee
        {
            OFFSET 0.0 -39.30944061279297 0.0
            CHANNELS 3 Zrotation Xrotation Yrotation
            JOINT LeftAnkle
            {
                OFFSET 0.0 -42.28388977050781 0.0
                CHANNELS 3 Zrotation Xrotation Yrotation
                JOINT LeftFoot
                {
                    OFFSET 0.0 -10.249992370605469 0.0
                    CHANNELS 3 Zrotation Xrotation Yrotation
                    End Site
                    {
                        OFFSET 0.0 0.0 4.099997520446777
                    }
                }
            }
        }
    }
    JOINT RightHip
    {
        OFFSET -14.563909530639648 0.0 0.0
        CHANNELS 3 Zrotation Xrotation Yrotation
        JOINT RightKnee
        {
            OFFSET 0.0 -39.30944061279297 0.0
            CHANNELS 3 Zrotation Xrotation Yrotation
            JOINT RightAnkle
            {
                OFFSET 0.0 -42.28388977050781 0.0
                CHANNELS 3 Zrotation Xrotation Yrotation
                JOINT RightFoot
                {
                    OFFSET 0.0 -10.249992370605469 0.0
                    CHANNELS 3 Zrotation Xrotation Yrotation
                    End Site
                    {
                        OFFSET 0.0 0.0 4.099997520446777
                    }
                }
            }
        }
    }
}
MOTION
Frames: 9
Frame Time: 0.03333333333333333
5.400000095367432 -1.0 51.0 0.5846327241520157 2.337193038873236 6.206065607648755 -4.184608811922708 14.176168491774328 -1.1912904238725024 2.55169107157154e-07 -3.9214402046804287e-07 15.405563239713715 135.4495464988989 -31.027805478464117 -138.56767332444275 -1.8548312715550707e-06 3.1144279461239405e-06 138.1621141045181 -7.14032666521728e-07 52.8736773156881 57.43765619150392 3.1805546814635168e-15 0.0 0.0 -98.7190172912025 20.509748769186068 -169.15222251418845 3.012128808900797e-06 -2.8952904352285013e-06 -133.53797240782635 179.99999890353558 21.42652697000029 118.75874666630857 0.0 0.0 3.1805546814635168e-15 1.086859400310587 6.795202425732435 -28.364367380944152 -1.09366829154236 -4.084209060440684 4.523839239700495 65.04813543884919 -62.10092944029382 115.53967148304555 0.0 0.0 -1.5902773407317584e-15 -3.049047322640002 3.177943042855475 18.711749708833906 -0.38950568977650635 5.1853794941349705 3.9089537310282445 -83.04444987446482 -58.37875875844869 -124.09304548926343 0.0 0.0 -3.1805546814635168e-15
5.400000095367432 -1.0 51.0 0.5846327103258597 2.9205696158709973 6.11348251894942 -4.282021401618714 13.400196298362417 -1.1192049097979473 -3.370314114373773e-07 -1.7839445984782843e-08 15.66313139456227 135.48101777120633 -31.137476637545447 -138.53032821278353 -2.5844168479392853e-07 5.989578838045706e-07 138.3290646794657 2.0620398651756077e-06 52.77447632564043 57.393164295426935 3.1805546814635168e-15 0.0 0.0 -98.58026157025921 20.961549086137865 -168.96262641962366 -6.268989712936913e-06 -1.6632029011776381e-06 -133.70013795878126 179.99999355213748 19.707952497994377 117.42675089466879 -6.3611093629270335e-15 1.7655625192200634e-31 -3.1805546814635168e-15 0.8759167755757366 6.38362331994876 -28.879939162212015 -0.7237802660033705 -4.1244757051632295 4.571211933166051 65.93277874872543 -61.08038524827722 116.73667791405806 0.0 0.0 -3.1805546814635164e-15 -3.099534239607437 2.731717300599396 19.310719913349207 -0.40050203127866235 5.063671650317235 3.793156844493032 -83.1269726293827 -57.956299631983065 -124.12196333202891 -3.1805546814635168e-15 5.565970692561154e-15 1.5902773407317584e-15
5.400000095367432 -1.0 51.0 1.1691382041488276 3.5027951839047127 5.994874982872163 -5.169040876267536 12.458263620241064 -0.9885900594944034 3.458888552855382e-08 6.467965218989341e-07 15.66713203494167 135.57904886596504 -31.450509534021066 -138.83231896472952 7.7463879499337e-06 1.5281784913583723e-06 138.4402526975505 4.1310083818784855e-06 52.903468145246826 57.391178641071924 -3.1805546814635168e-15 -3.1805546814635168e-15 -8.827812596100317e-32 -98.37787611736104 20.942717542775927 -168.42237306826235 -3.6616060680461648e-06 -4.102468801188302e-06 -133.8691213957857 179.99999540685988 19.864961919248614 118.49385990103791 0.0 0.0 0.0 0.22442429518510099 5.867051641418642 -28.788597676320745 -0.5902960957738637 -4.08399867979337 4.547788175948413 66.42705235751698 -61.757072994872686 117.27135499317411 3.1805546814635164e-15 -4.4139062980501586e-32 -1.5902773407317582e-15 -3.7436459360062377 2.210095384782061 19.36559544241878 -0.27744332073558575 5.006483493897141 3.7338568754788186 -83.14853168564781 -57.43529330021228 -124.1705448139681 1.5902773407317584e-15 7.951386703658791e-16 -4.770832022195275e-15
5.400000095367432 -1.0 51.0 0.5906594611469403 2.9506223522982697 6.078129628201137 -4.1171103934260085 12.859596010509021 -1.104604374077457 -3.7616008369112335e-08 -1.237298067122124e-06 15.397023120675772 134.99357518878963 -31.85777194568517 -138.86590644290192 3.86778962411333e-06 1.9190712781390953e-06 138.3394186641134 -2.3282882952706923e-07 53.51214756651182 57.23642328474218 0.0 -3.1805546814635168e-15 0.0 -98.72273800637825 21.127491362757908 -168.45512759553384 2.5159020969617067e-06 -8.840497197606601e-07 -133.82072812718775 -179.9999970533168 20.27540681575199 118.2339844046278 -6.3611093629270335e-15 3.1805546814635168e-15 -3.1805546814635168e-15 0.8627797444834088 6.354914754680452 -28.84423511124961 -0.7152704683399403 -4.1358062746899344 4.585057199848502 66.44978392412536 -61.78276505867433 117.15144214186199 3.1805546814635164e-15 -4.4139062980501586e-32 -1.5902773407317582e-15 -2.9868334479840035 2.5481392604034228 18.993872220410456 -0.31672185908969513 5.309800880668299 3.926643998810592 -83.36869811734876 -57.59689610630487 -124.09811801547852 1.5902773407317582e-15 -6.620859447075238e-32 -4.770832022195274e-15
5.400000095367432 -1.100000023841858 51.0 0.5846327381180014 2.9205697132538155 6.069027908865242 -3.727815774511163 12.6611999415967 -1.2330435763278897 3.0505814162929613e-07 -4.303075863567805e-07 14.651285011995217 134.29434729371684 -31.597474462151215 -139.7379779756478 -4.174024040888698e-06 -1.0603137869184813e-06 138.4881546440282 -1.921202138846163e-06 53.64939038725267 57.08328664153263 -6.3611093629270335e-15 0.0 0.0 -98.90377737154306 20.470384090754525 -168.55900502156265 -3.448720805233502e-06 -4.0440341030633795e-06 -133.74148194543133 179.99999540516217 20.315772628711738 118.00506101309699 -6.3611093629270335e-15 3.1805546814635168e-15 1.7655625192200634e-31 0.8756777451429835 6.4088544812708 -28.862849295654247 -0.7055997445435905 -4.159917076862542 4.611939340115851 65.41739890683087 -61.58365875901092 116.07464483081154 6.3611093629270335e-15 6.3611093629270335e-15 -6.3611093629270335e-15 -2.9781575881170634 2.5768574538547258 18.955342860279902 -0.4447889893089331 5.36582478878362 3.9403840914098454 -83.33231907079613 -58.21288564578664 -123.67209423205854 -3.1805546814635168e-15 8.827812596100317e-32 -3.1805546814635168e-15
5.400000095367432 -1.100000023841858 51.0 4.0591443872369306e-09 2.3373147316902876 6.459328846830905 -2.6013603948088404 13.158495217342212 -1.3933209794424342 4.848219047483041e-08 -2.100516889060415e-06 13.993417589882778 133.58833337595797 -31.809251465869604 -140.46970259268562 -1.8324817614181172e-07 2.2474613870677612e-06 138.5942365308598 -4.170136782646218e-06 55.436317161699534 58.148872931087425 -3.180554681463516e-15 0.0 0.0 -99.19884271223101 20.490074384848484 -168.51472063458883 -4.266894797825723e-07 -2.1806309984975212e-06 -133.74305413061646 -179.99999911433778 22.05130029311003 118.85804952941814 0.0 0.0 -3.1805546814635164e-15 1.5415688386559723 6.742679561032578 -28.51004486627786 -0.7047742553479424 -3.9251546408585325 4.386388023532007 65.00032925881018 -62.05357642303611 115.77774635219126 3.1805546814635168e-15 4.770832022195275e-15 -1.5902773407317584e-15 -2.3171293218093036 3.109139993504708 18.615674753607998 -0.4447889893089331 5.36582478878362 3.9403840914098454 -83.33231907079613 -58.21288564578664 -123.67209423205854 -3.1805546814635168e-15 8.827812596100317e-32 -3.1805546814635168e-15
5.400000095367432 -1.100000023841858 51.0 -3.7218242001785204e-09 2.337314874686496 6.177966854284205 -2.711760171811261 12.76278319310018 -1.3260127884905573 -1.6654430385801613e-07 -2.3130996341474634e-07 14.107104286968465 133.40540457476476 -32.367360410836234 -140.559507285398 4.764569189031731e-06 -1.4661887671998097e-07 138.39467815531123 2.4970217823048734e-06 54.51486787654743 57.19212011373811 -3.1805546814635164e-15 0.0 0.0 -98.82169881661062 20.392928401383386 -168.25570206295149 -2.1478019335874433e-06 -2.5956156437440654e-06 -133.9213938033681 179.99999631316732 20.274711798095034 118.62671901737123 8.827812596100317e-32 -3.1805546814635168e-15 3.1805546814635168e-15 1.5082970726844287 6.7501672348848185 -28.226823065815854 -0.8222751320191672 -3.986986554350237 4.436826358683508 66.03111263027482 -62.287589354056884 116.71300242888495 -2.2069531490250793e-32 -1.5902773407317584e-15 -1.5902773407317584e-15 -2.342511799117025 2.9469307272922927 18.35330141346807 -0.49762769199327267 5.406033481775594 4.004100817704664 -81.71858873970208 -58.64685778450742 -122.06027757144811 -1.5902773407317584e-15 4.4139062980501586e-32 -3.1805546814635168e-15
5.400000095367432 -1.100000023841858 51.0 -3.7218242001785204e-09 2.337314874686496 6.177966854284205 -2.5085586635649633 12.743831805408085 -1.3693852405414288 4.1036282073277666e-07 4.1218036459204604e-07 13.52512773163802 133.09260429977513 -32.28840106222035 -141.17287005560124 -1.0223837237887032e-06 -4.227900351300883e-07 138.28511445594705 -9.917247558175084e-07 53.90123624197774 58.52559298809839 0.0 0.0 0.0 -98.78968506031457 19.928989784898388 -168.5868398199421 2.349173752236467e-06 -3.618759686776782e-06 -133.6516251678232 179.9999982388195 20.483816645236526 119.69011885198167 8.827812596100317e-32 -3.1805546814635168e-15 3.1805546814635168e-15 1.5082970726844287 6.7501672348848185 -28.226823065815854 -0.8222751320191672 -3.986986554350237 4.436826358683508 67.09693839360003 -62.483923639116696 117.81978150195609 3.1805546814635168e-15 8.827812596100317e-32 3.1805546814635168e-15 -2.342511799117025 2.9469307272922927 18.35330141346807 -0.49762769199327267 5.406033481775594 4.004100817704664 -81.75595385991407 -58.08168169474526 -122.25763653137868 -3.1805546814635168e-15 -8.827812596100317e-32 3.1805546814635168e-15
5.400000095367432 -1.100000023841858 50.900001525878906 -0.5846299627003478 2.9205697784304983 6.109526793596955 -1.600071492298887 12.060295774863025 -1.3795926864029193 3.9920253849740106e-07 -2.542908902941172e-06 13.08515743102725 132.98008204642267 -32.58975710103892 -141.35448926870293 4.505988623878468e-06 2.0308389207741774e-06 138.2734614267786 3.246818412074281e-06 53.880309815314085 57.20455547403873 -3.1805546814635168e-15 -8.827812596100317e-32 3.1805546814635168e-15 -99.1883160654085 19.482102960598088 -168.53392692327014 3.4773870630705385e-06 8.941264109293196e-07 -133.57801402170236 -179.99999716937853 20.520380741786006 117.67750288735293 0.0 0.0 0.0 1.9975323613855993 5.960907778411274 -27.9484925447196 -0.7638910242525316 -3.794678228653339 4.240938578927958 67.07334197200444 -62.458206494727825 117.93839202824694 3.1805546814635168e-15 8.827812596100317e-32 3.1805546814635168e-15 -1.8275562674043584 2.301489132123083 18.42519475714579 -0.5524451185010594 5.258542847294447 3.9032773774339873 -82.48418567204777 -58.173703335373176 -123.08939231352706 1.5902773407317588e-15 0.0 0.0
